<?xml version="1.0" encoding="UTF-8" standalone="no"?>
<svg
   width="153px"
   height="149px"
   version="1.1"
   xml:space="preserve"
   style="fill-rule:evenodd;clip-rule:evenodd;stroke-linejoin:round;stroke-miterlimit:2;"
   id="svg1"
   sodipodi:docname="Logo-NoText-Lines.svg"
   inkscape:version="1.4 (86a8ad7, 2024-10-11)"
   xmlns:inkscape="http://www.inkscape.org/namespaces/inkscape"
   xmlns:sodipodi="http://sodipodi.sourceforge.net/DTD/sodipodi-0.dtd"
   xmlns="http://www.w3.org/2000/svg"
   xmlns:svg="http://www.w3.org/2000/svg"><defs
   id="defs1" /><sodipodi:namedview
   id="namedview1"
   pagecolor="#505050"
   bordercolor="#ffffff"
   borderopacity="1"
   inkscape:showpageshadow="0"
   inkscape:pageopacity="0"
   inkscape:pagecheckerboard="1"
   inkscape:deskcolor="#d1d1d1"
   inkscape:zoom="5.4161074"
   inkscape:cx="76.530979"
   inkscape:cy="74.5"
   inkscape:window-width="1920"
   inkscape:window-height="1009"
   inkscape:window-x="-8"
   inkscape:window-y="-8"
   inkscape:window-maximized="1"
   inkscape:current-layer="svg1" />
    <g
   transform="matrix(1.51862,-1.85977e-16,-1.85977e-16,-1.51862,-3565.07,5305.82)"
   id="g1"
   style="fill:none;stroke:#1a1a1a;stroke-width:0.32924629;stroke-dasharray:none">
        <path
   d="M2397.91,3493.82C2410.32,3485.74 2423.86,3479.43 2437.9,3474.47C2437.9,3474.47 2438.52,3469.19 2439.17,3464.87C2440.9,3453.34 2443.79,3441.98 2447.68,3431.01C2447.68,3431.01 2443.95,3426.97 2440.86,3423.44C2433.34,3414.86 2426.47,3405.73 2420.08,3396.31C2420.08,3396.31 2414.72,3396.73 2410.31,3396.98C2398.63,3397.63 2386.92,3397.26 2375.3,3395.9C2375.3,3395.9 2372.51,3400.23 2370.11,3403.7C2363.42,3413.36 2355.82,3422.34 2347.58,3430.7C2347.58,3430.7 2349.75,3436.58 2351.23,3441.49C2354.43,3452.18 2356.31,3463.23 2357.24,3474.4C2357.24,3474.4 2362.33,3476.08 2366.43,3477.67C2377.4,3481.92 2387.88,3487.41 2397.8,3493.83C2397.8,3493.83 2397.81,3493.89 2397.91,3493.82ZM2397.64,3482.26C2395.25,3480.9 2392.67,3479.91 2390,3479.22L2389.75,3479.16C2390.76,3466.88 2393.45,3454.81 2397.89,3443.34C2402.46,3454.7 2404.6,3466.94 2406.03,3479.16C2403.18,3479.87 2400.36,3480.82 2397.89,3482.42C2397.81,3482.37 2397.72,3482.32 2397.64,3482.26ZM2430.2,3467.06C2427.24,3468.26 2424.84,3469.86 2422.7,3471.59C2412.89,3462.87 2403.95,3453.18 2397.89,3443.34C2408.35,3446.14 2420.52,3451.56 2432.51,3458.6C2431.36,3461.29 2430.41,3464.05 2430.2,3467.06ZM2365.41,3467.06C2365.21,3464.05 2364.26,3461.29 2363.11,3458.6C2375.09,3451.56 2387.44,3446.14 2397.89,3443.34C2391.84,3453.18 2382.73,3462.87 2372.92,3471.59C2370.78,3469.86 2368.37,3468.26 2365.41,3467.06ZM2359.27,3433C2361.51,3430.97 2363.08,3428.51 2364.47,3425.94C2377.43,3430.98 2389.22,3436.88 2397.89,3443.34C2386.42,3444.69 2373.3,3443.99 2360.37,3441.7C2360.39,3438.94 2360.16,3436.07 2359.27,3433ZM2436.35,3433C2435.46,3436.07 2435.22,3438.94 2435.25,3441.7C2422.32,3443.99 2409.37,3444.69 2397.89,3443.34C2406.57,3436.88 2418.18,3430.98 2431.14,3425.94C2432.54,3428.51 2434.11,3430.97 2436.35,3433ZM2414.63,3406.34C2416.44,3408.97 2418.52,3410.97 2420.67,3412.69C2414.28,3424.16 2406.19,3435.3 2397.89,3443.34C2398.36,3432.53 2401.58,3419.15 2405.87,3405.92C2408.74,3406.47 2411.64,3406.8 2414.63,3406.34ZM2380.99,3406.34C2383.98,3406.8 2386.88,3406.47 2389.75,3405.92C2394.03,3419.15 2397.43,3432.53 2397.89,3443.34C2389.6,3435.3 2381.34,3424.16 2374.95,3412.69C2377.1,3410.97 2379.18,3408.97 2380.99,3406.34Z"
   style="fill:none;fill-rule:nonzero;stroke:#1a1a1a;stroke-width:0.32924629;stroke-dasharray:none"
   id="path1" />
    </g>
</svg>
